<svg width="26" height="26" viewBox="0 0 26 26" fill="none" xmlns="http://www.w3.org/2000/svg">
<path d="M10.8333 0V6.5H15.1667V0H10.8333ZM13 4.33333C12.402 4.33333 11.9167 3.848 11.9167 3.25C11.9167 2.652 12.402 2.16667 13 2.16667C13.5991 2.16667 14.0833 2.652 14.0833 3.25C14.0833 3.848 13.5991 4.33333 13 4.33333ZM17.3333 4.33333V7.58333H8.66666V4.33333H4.33333V26H21.6667V4.33333H17.3333ZM18.4167 21.6667H7.58333V21.2149C7.57899 20.0103 7.631 19.3223 9.01766 19.0017C10.5376 18.6507 12.0369 18.3376 11.3165 17.0073C9.17908 13.0672 10.7066 10.8333 13 10.8333C15.2501 10.8333 16.8144 12.9838 14.6857 17.0073C13.9847 18.3289 15.431 18.6431 16.9834 19.0017C18.3744 19.3234 18.4221 20.0157 18.4167 21.2301V21.6667Z" fill="white"/>
</svg>
