<svg width="29" height="30" viewBox="0 0 29 30" fill="none" xmlns="http://www.w3.org/2000/svg">
<path d="M26.3489 16C26.3489 9.47118 21.0288 4.151 14.5 4.151C7.9712 4.151 2.65102 9.47118 2.65102 16C2.65102 19.4362 4.13214 22.5287 6.47823 24.6971C6.47823 24.7089 6.47823 24.7089 6.46638 24.7208C6.58487 24.8393 6.72706 24.9341 6.84555 25.0407C6.91665 25.1 6.97589 25.1592 7.04698 25.2066C7.26026 25.3843 7.49724 25.5502 7.72237 25.7161C7.80532 25.7754 7.87641 25.8227 7.95935 25.882C8.18448 26.036 8.42146 26.1782 8.67029 26.3086C8.75323 26.356 8.84803 26.4152 8.93097 26.4626C9.16795 26.5929 9.41678 26.7114 9.67745 26.8181C9.77224 26.8655 9.86704 26.9129 9.96183 26.9484C10.2225 27.055 10.4832 27.1498 10.7439 27.2328C10.8387 27.2683 10.9334 27.3039 11.0282 27.3276C11.3126 27.4105 11.597 27.4816 11.8814 27.5527C11.9643 27.5764 12.0472 27.6001 12.142 27.6119C12.4738 27.683 12.8056 27.7304 13.1492 27.766C13.1966 27.766 13.244 27.7778 13.2914 27.7897C13.6942 27.8252 14.0971 27.8489 14.5 27.8489C14.9028 27.8489 15.3057 27.8252 15.6967 27.7897C15.7441 27.7897 15.7915 27.7778 15.8389 27.766C16.1825 27.7304 16.5143 27.683 16.8461 27.6119C16.929 27.6001 17.012 27.5645 17.1067 27.5527C17.3911 27.4816 17.6873 27.4224 17.9599 27.3276C18.0547 27.292 18.1495 27.2565 18.2442 27.2328C18.5049 27.138 18.7775 27.055 19.0263 26.9484C19.1211 26.9129 19.2159 26.8655 19.3107 26.8181C19.5595 26.7114 19.8083 26.5929 20.0571 26.4626C20.1519 26.4152 20.2349 26.356 20.3178 26.3086C20.5548 26.1664 20.7918 26.036 21.0288 25.882C21.1117 25.8346 21.1828 25.7754 21.2657 25.7161C21.5027 25.5502 21.7278 25.3843 21.9411 25.2066C22.0122 25.1474 22.0715 25.0881 22.1426 25.0407C22.2729 24.9341 22.4032 24.8274 22.5217 24.7208C22.5217 24.7089 22.5217 24.7089 22.5099 24.6971C24.8678 22.5287 26.3489 19.4362 26.3489 16ZM20.3534 21.8889C17.1423 19.7324 11.8814 19.7324 8.64659 21.8889C8.12524 22.2325 7.69868 22.6354 7.34321 23.0738C5.54217 21.249 4.42836 18.7489 4.42836 16C4.42836 10.4428 8.94282 5.92834 14.5 5.92834C20.0571 5.92834 24.5716 10.4428 24.5716 16C24.5716 18.7489 23.4578 21.249 21.6568 23.0738C21.3131 22.6354 20.8747 22.2325 20.3534 21.8889Z" fill="white"/>
<path d="M14.5 9.99255C12.0473 9.99255 10.0566 11.9832 10.0566 14.4359C10.0566 16.8413 11.9406 18.7963 14.4408 18.8674C14.4763 18.8674 14.5237 18.8674 14.5474 18.8674C14.5711 18.8674 14.6066 18.8674 14.6303 18.8674C14.6422 18.8674 14.654 18.8674 14.654 18.8674C17.0475 18.7845 18.9315 16.8413 18.9434 14.4359C18.9434 11.9832 16.9527 9.99255 14.5 9.99255Z" fill="white"/>
</svg>
