<svg width="24" height="26" viewBox="0 0 24 26" fill="none" xmlns="http://www.w3.org/2000/svg">
<g clip-path="url(#clip0_9_6673)">
<path d="M9.80668 2.6656C12.2953 2.6656 16.1968 2.68676 18.6854 2.68676C18.9596 2.68676 19.2337 2.70791 19.5079 2.77138C19.761 2.81369 20.0141 2.89831 20.2671 3.00409C20.4991 3.10987 20.7311 3.2368 20.9631 3.38489C21.174 3.53297 21.3849 3.70222 21.5747 3.89262C21.7645 4.08301 21.9332 4.29457 22.0808 4.50612C22.2285 4.71768 22.355 4.95039 22.4605 5.20425C22.5659 5.43696 22.6292 5.69083 22.6924 5.96585C22.7346 6.24087 22.7768 6.49473 22.7768 6.79091V15.0627C22.7768 15.3377 22.7557 15.6127 22.6924 15.8877C22.6503 16.1628 22.5659 16.3955 22.4605 16.6493C22.355 16.882 22.2285 17.1147 22.0808 17.3475C21.9332 17.559 21.7645 17.7706 21.5747 17.961C21.3638 18.1514 21.1529 18.3418 20.942 18.4687C20.7311 18.6168 20.4991 18.7437 20.2671 18.8495C20.0351 18.9553 19.7821 19.0187 19.529 19.0822C19.2759 19.1245 19.0018 19.1668 18.7065 19.1668H15.5641C15.4587 19.1668 15.3743 19.188 15.29 19.2303C15.2056 19.2726 15.1424 19.3361 15.0791 19.3995C14.826 19.7169 14.5729 20.0342 14.2988 20.3515C14.0246 20.6477 13.7504 20.9439 13.4341 21.2189C13.1388 21.4939 12.8225 21.7478 12.5062 22.0016C12.1898 22.2555 11.8524 22.4882 11.5149 22.7209C11.1986 22.9325 10.8401 23.144 10.4815 23.3344C10.123 23.5248 9.7645 23.6941 9.40598 23.8633C9.3638 23.8845 9.32162 23.8845 9.27944 23.8633C9.21617 23.821 9.19508 23.7364 9.21617 23.6729C9.27944 23.546 9.34271 23.4402 9.40598 23.3133C9.46924 23.2075 9.53251 23.0806 9.57469 22.9536C9.68014 22.7209 9.78559 22.4882 9.86995 22.2344C9.9754 21.9805 10.0598 21.7266 10.1441 21.4728C10.2285 21.2401 10.3128 20.9862 10.3761 20.7323C10.4605 20.4785 10.5237 20.2246 10.587 19.9707C10.6081 19.8861 10.6292 19.8226 10.6292 19.738C10.6292 19.5688 10.5659 19.4207 10.4394 19.2938C10.3339 19.188 10.1652 19.1034 9.99649 19.1034H6.41125C6.13708 19.1034 5.86292 19.0822 5.58875 19.0187C5.33568 18.9764 5.0826 18.8918 4.85062 18.8072C4.61863 18.7226 4.38664 18.5956 4.17575 18.4475C3.94376 18.2994 3.73286 18.1091 3.52197 17.9187C3.33216 17.7283 3.16344 17.5167 3.01582 17.3051C2.86819 17.0936 2.74165 16.8609 2.6362 16.607C2.53076 16.3743 2.46749 16.1204 2.40422 15.8454C2.36204 15.5704 2.31986 15.3165 2.31986 15.0204V9.79498C2.31986 8.94876 1.2232 8.94876 1.05448 9.54111V15.0204C1.05448 15.38 1.09666 15.7396 1.15993 16.0781C1.2232 16.4166 1.32865 16.7551 1.45518 17.0724C1.58172 17.3898 1.75044 17.6859 1.94025 17.9821C2.13005 18.2783 2.36204 18.5533 2.61511 18.8072C2.86819 19.061 3.14235 19.2938 3.43761 19.4842C3.71177 19.6746 4.02812 19.8438 4.34446 19.9707C4.66081 20.0977 4.99824 20.2034 5.33568 20.2669C5.67311 20.3304 6.03163 20.3727 6.39016 20.3727H8.98418C9.00527 20.3727 9.02636 20.3727 9.02636 20.3727C9.11072 20.3938 9.1529 20.4785 9.11072 20.5631C9.06854 20.7323 9.00527 20.8804 8.96309 21.0497C8.87873 21.2824 8.79438 21.5151 8.71002 21.7478C8.62566 21.9593 8.52021 22.192 8.43585 22.4036C8.43585 22.4248 8.43585 22.4248 8.43585 22.4459C8.35149 22.6575 8.24605 22.869 8.11951 23.0806C7.99297 23.2921 7.86643 23.4825 7.69772 23.6941C7.55009 23.8845 7.36028 24.096 7.17047 24.3076C6.98067 24.5191 6.76977 24.7095 6.53779 24.9211C6.41125 25.048 6.34798 25.1961 6.32689 25.3654C6.32689 25.5346 6.36907 25.6827 6.49561 25.8096C6.57996 25.8942 6.68541 25.9577 6.79086 26C6.89631 26.0423 7.02285 26.0423 7.1283 26C7.59227 25.8731 8.05624 25.725 8.52021 25.5769C8.96309 25.4288 9.40598 25.2596 9.82777 25.0692C10.2496 24.8788 10.6714 24.6884 11.0721 24.4768C11.4728 24.2653 11.8524 24.0326 12.232 23.7787C12.6116 23.546 12.9701 23.271 13.3076 22.996C13.6661 22.7209 13.9824 22.4248 14.3199 22.1286C14.594 21.8747 14.8471 21.5997 15.1002 21.3247C15.3533 21.0497 15.6063 20.7535 15.8383 20.4573C15.8594 20.415 15.9016 20.3938 15.9649 20.3938H18.7065C19.065 20.3938 19.4235 20.3515 19.761 20.2881C20.0984 20.2246 20.4359 20.1188 20.7522 19.9919C21.0685 19.865 21.3638 19.6957 21.659 19.5053C21.9543 19.3149 22.2285 19.0822 22.4815 18.8283C22.7346 18.5745 22.9666 18.2994 23.1564 18.0033C23.3462 17.7071 23.5149 17.4109 23.6415 17.0936C23.768 16.7763 23.8735 16.4378 23.9367 16.0993C24 15.7608 24.0422 15.4012 24.0422 15.0415V6.7486C24.0422 6.38895 24 6.02931 23.9367 5.69083C23.8735 5.35234 23.768 5.01385 23.6415 4.69652C23.5149 4.37919 23.3462 4.08301 23.1564 3.78684C22.9666 3.49066 22.7346 3.21564 22.4815 2.96178C22.2285 2.70791 21.9543 2.4752 21.659 2.2848C21.3849 2.09441 21.0685 1.92516 20.7522 1.79823C20.4359 1.6713 20.0984 1.56552 19.761 1.50205C19.4235 1.43859 19.065 1.39628 18.7065 1.39628C16.1125 1.39628 12.1265 1.37512 9.53251 1.37512C8.89982 1.56552 8.85765 2.6656 9.80668 2.6656ZM5.12478 8.29294C5.52548 8.41987 5.92619 8.54681 6.32689 8.67374C6.72759 8.80067 7.1283 8.94876 7.529 9.07569C8.47803 9.37187 9.00527 9.56227 9.11072 9.58342C9.21617 9.60458 9.1529 9.18147 8.92091 8.25063L8.16169 5.35234L8.09842 5.28887L5.12478 8.29294ZM7.00176 4.16764L3.14235 0.105797C3.01582 2.00337e-05 2.88928 -0.0422908 2.74165 0.0423309L0.0843585 2.62329C-0.0210896 2.75022 -0.0421793 2.89831 0.105448 3.0464L4.02812 7.17171L7.00176 4.16764ZM8.87873 15.4223C8.5413 15.4223 8.28823 15.1684 8.26714 14.83C8.26714 14.4915 8.52021 14.2376 8.85765 14.2165L14.1301 14.1318L15.3322 14.0472C15.6696 14.0261 15.9438 14.2799 15.9649 14.5973C15.9859 14.9357 15.7329 15.2108 15.4165 15.2319L14.2144 15.3165C14.2144 15.3165 9.40598 15.4012 8.87873 15.4223ZM10.7557 11.6567C10.4183 11.6567 10.1652 11.3816 10.1652 11.0643C10.1652 10.7258 10.4394 10.4719 10.7557 10.4719H18.2636C18.6011 10.4719 18.8541 10.747 18.8541 11.0643C18.8541 11.4028 18.58 11.6567 18.2636 11.6567H10.7557ZM13.413 8.08139C13.0756 8.08139 12.8225 7.80637 12.8225 7.48904C12.8225 7.17171 13.0967 6.89668 13.413 6.89668H18.2636C18.6011 6.89668 18.8541 7.17171 18.8541 7.48904C18.8541 7.82752 18.58 8.08139 18.2636 8.08139H13.413Z" fill="white"/>
</g>
<defs>
<clipPath id="clip0_9_6673">
<rect width="24" height="26" fill="white"/>
</clipPath>
</defs>
</svg>
