<svg width="27" height="27" viewBox="0 0 27 27" fill="none" xmlns="http://www.w3.org/2000/svg">
<path d="M12.9706 2.8006C13.8283 2.0777 15.2129 2.0777 16.046 2.8006L17.982 4.45471C18.3495 4.76103 19.0479 5.01833 19.5381 5.01833H21.621C22.9198 5.01833 23.9858 6.08432 23.9858 7.3831V9.46605C23.9858 9.95615 24.2431 10.6423 24.5494 11.0099L26.2035 12.9458C26.9264 13.8035 26.9264 15.188 26.2035 16.0212L24.5494 17.9571C24.2431 18.3247 23.9858 19.0109 23.9858 19.501V21.5839C23.9858 22.8827 22.9198 23.9487 21.621 23.9487H19.5381C19.0479 23.9487 18.3618 24.206 17.9942 24.5123L16.0583 26.1664C15.2006 26.8893 13.8161 26.8893 12.9829 26.1664L11.047 24.5123C10.6794 24.206 9.98098 23.9487 9.50312 23.9487H7.35891C6.06013 23.9487 4.99414 22.8827 4.99414 21.5839V19.4887C4.99414 19.0109 4.74909 18.3125 4.44278 17.9571L2.78867 16.009C2.07801 15.1635 2.07801 13.7912 2.78867 12.9458L4.44278 10.9976C4.74909 10.6301 4.99414 9.9439 4.99414 9.46605V7.39535C4.99414 6.09657 6.06013 5.03059 7.35891 5.03059H9.47862C9.96872 5.03059 10.6549 4.77328 11.0225 4.46696L12.9706 2.8006Z" fill="#7D7D7D"/>
<path d="M14.4999 19.9788C13.8812 19.9788 13.3749 19.4725 13.3749 18.8538C13.3749 18.235 13.8699 17.7288 14.4999 17.7288C15.1187 17.7288 15.6249 18.235 15.6249 18.8538C15.6249 19.4725 15.1299 19.9788 14.4999 19.9788Z" fill="#14141C"/>
<path d="M14.5 16.435C14.0388 16.435 13.6562 16.0525 13.6562 15.5912V10.1462C13.6562 9.68499 14.0388 9.30249 14.5 9.30249C14.9612 9.30249 15.3438 9.68499 15.3438 10.1462V15.58C15.3438 16.0525 14.9725 16.435 14.5 16.435Z" fill="#14141C"/>
</svg>
