<svg width="25" height="25" viewBox="0 0 25 25" fill="none" xmlns="http://www.w3.org/2000/svg">
<g clip-path="url(#clip0_9_6653)">
<path fill-rule="evenodd" clip-rule="evenodd" d="M11.6364 14.6172C11.3299 14.1306 11.0693 13.617 10.8578 13.083C9.18298 12.1487 8.91549 7.9937 9.94755 8.30845C9.94755 8.15206 9.9196 7.71459 9.9196 7.4137C9.9196 0.669483 20.8471 0.665524 20.8471 7.4137C20.8471 7.72251 20.8151 8.15206 20.8191 8.30845C21.8492 7.98776 21.5817 12.1428 19.9088 13.083C19.4836 14.251 18.7251 15.0348 18.787 15.5475C18.787 17.3073 16.8366 17.9447 15.3933 17.9606C15.2616 17.9606 15.1278 17.9606 14.9941 17.9408C15.3109 17.8573 15.6145 17.7307 15.8964 17.5647C16.5172 17.1886 16.9364 16.6323 16.9364 15.9652C16.9364 15.2981 16.5192 14.7379 15.8984 14.3638C15.3293 14.0326 14.6818 13.857 14.0219 13.8551C13.5093 13.8456 12.9999 13.9364 12.5227 14.1223C12.2266 14.2414 11.9558 14.4147 11.7242 14.633H11.6504L11.6364 14.6172ZM23.2645 6.47343H23.1907C22.506 3.59719 20.7453 1.60184 18.6472 0.776377C17.419 0.316566 16.1025 0.135295 14.7944 0.245866C13.506 0.345595 12.2525 0.709596 11.1134 1.31481C10.1618 1.83824 9.34997 2.57941 8.74547 3.47666C8.14098 4.37392 7.76125 5.40132 7.63788 6.47343H7.50014C6.84138 6.47343 6.17463 7.00988 6.17463 7.66114V11.9508C6.17463 12.604 6.84138 13.1385 7.50014 13.1385H7.88941C8.31461 14.8508 10.0374 16.4185 11.8001 16.4185H12.1454C12.4469 16.858 13.0318 17.1688 14.0059 17.1688C14.9801 17.1688 16.0181 16.6244 16.0181 15.9553C16.0181 15.2862 14.9941 14.7439 14.0059 14.7439C13.0178 14.7439 12.4189 15.0626 12.1275 15.5218H11.8001C10.2949 15.5218 8.80569 13.9382 8.69989 12.509V6.55063C8.81229 5.65417 9.13574 4.79648 9.64411 4.04684C10.1525 3.29721 10.8315 2.67665 11.6264 2.23528C12.6325 1.7048 13.7382 1.38604 14.8743 1.29897C16.0213 1.2011 17.1758 1.35798 18.254 1.75822C19.9927 2.43917 21.4599 4.13364 22.0927 6.47343H22.0668V13.1385H23.2645C23.9233 13.1385 24.5901 12.604 24.5901 11.9508V7.66312C24.5901 7.0079 23.9233 6.47541 23.2645 6.47541V6.47343ZM16.11 20.8903H16.4813C16.6401 20.8903 16.7924 20.8277 16.9047 20.7163C17.0171 20.605 17.0802 20.4539 17.0802 20.2964V19.3067C17.0802 19.1492 17.0171 18.9981 16.9047 18.8867C16.7924 18.7754 16.6401 18.7128 16.4813 18.7128H14.2854C14.1274 18.7153 13.9765 18.7787 13.8648 18.8896C13.753 19.0004 13.6891 19.1499 13.6865 19.3067V20.2964C13.6896 20.453 13.7537 20.6022 13.8653 20.713C13.977 20.8237 14.1275 20.8872 14.2854 20.8903H14.6547L13.9281 24.5385H16.8047L16.11 20.8883V20.8903ZM3.21619 24.5405C3.50165 20.8705 2.77501 21.0189 5.87519 19.8688C7.45946 19.2929 8.98264 18.5635 10.4227 17.6914L13.0717 24.5464L3.21619 24.5405ZM20.4638 17.3727C21.7788 18.2009 23.1914 18.8657 24.6699 19.3522C27.5645 20.3063 27.5645 20.4409 27.5365 24.5326H17.719L20.4638 17.3727Z" fill="white"/>
</g>
<defs>
<clipPath id="clip0_9_6653">
<rect width="24.3243" height="24.3243" fill="white" transform="translate(0.216187 0.216187)"/>
</clipPath>
</defs>
</svg>
