<svg width="29" height="29" viewBox="0 0 29 29" fill="none" xmlns="http://www.w3.org/2000/svg">
<path d="M26.349 15.5C26.349 8.97118 21.0289 3.651 14.5001 3.651C7.97131 3.651 2.65112 8.97118 2.65112 15.5C2.65112 18.9362 4.13224 22.0287 6.47834 24.1971C6.47834 24.2089 6.47834 24.2089 6.46649 24.2208C6.58498 24.3393 6.72716 24.4341 6.84565 24.5407C6.91675 24.6 6.97599 24.6592 7.04709 24.7066C7.26037 24.8843 7.49735 25.0502 7.72248 25.2161C7.80542 25.2754 7.87651 25.3227 7.95946 25.382C8.18459 25.536 8.42157 25.6782 8.67039 25.8086C8.75334 25.856 8.84813 25.9152 8.93107 25.9626C9.16805 26.0929 9.41688 26.2114 9.67756 26.3181C9.77235 26.3655 9.86714 26.4129 9.96193 26.4484C10.2226 26.555 10.4833 26.6498 10.744 26.7328C10.8388 26.7683 10.9335 26.8039 11.0283 26.8276C11.3127 26.9105 11.5971 26.9816 11.8815 27.0527C11.9644 27.0764 12.0473 27.1001 12.1421 27.1119C12.4739 27.183 12.8057 27.2304 13.1493 27.266C13.1967 27.266 13.2441 27.2778 13.2915 27.2897C13.6944 27.3252 14.0972 27.3489 14.5001 27.3489C14.9029 27.3489 15.3058 27.3252 15.6968 27.2897C15.7442 27.2897 15.7916 27.2778 15.839 27.266C16.1826 27.2304 16.5144 27.183 16.8462 27.1119C16.9291 27.1001 17.0121 27.0645 17.1069 27.0527C17.3912 26.9816 17.6875 26.9224 17.96 26.8276C18.0548 26.792 18.1496 26.7565 18.2444 26.7328C18.505 26.638 18.7776 26.555 19.0264 26.4484C19.1212 26.4129 19.216 26.3655 19.3108 26.3181C19.5596 26.2114 19.8084 26.0929 20.0572 25.9626C20.152 25.9152 20.235 25.856 20.3179 25.8086C20.5549 25.6664 20.7919 25.536 21.0289 25.382C21.1118 25.3346 21.1829 25.2754 21.2658 25.2161C21.5028 25.0502 21.7279 24.8843 21.9412 24.7066C22.0123 24.6474 22.0716 24.5881 22.1427 24.5407C22.273 24.4341 22.4033 24.3274 22.5218 24.2208C22.5218 24.2089 22.5218 24.2089 22.51 24.1971C24.8679 22.0287 26.349 18.9362 26.349 15.5ZM20.3535 21.3889C17.1424 19.2324 11.8815 19.2324 8.6467 21.3889C8.12534 21.7325 7.69878 22.1354 7.34331 22.5738C5.54227 20.749 4.42847 18.2489 4.42847 15.5C4.42847 9.9428 8.94292 5.42834 14.5001 5.42834C20.0572 5.42834 24.5717 9.9428 24.5717 15.5C24.5717 18.2489 23.4579 20.749 21.6569 22.5738C21.3132 22.1354 20.8748 21.7325 20.3535 21.3889Z" fill="#B9B4B4"/>
<path d="M14.5 9.49255C12.0473 9.49255 10.0566 11.4832 10.0566 13.9359C10.0566 16.3413 11.9406 18.2963 14.4408 18.3674C14.4763 18.3674 14.5237 18.3674 14.5474 18.3674C14.5711 18.3674 14.6066 18.3674 14.6303 18.3674C14.6422 18.3674 14.654 18.3674 14.654 18.3674C17.0475 18.2845 18.9315 16.3413 18.9434 13.9359C18.9434 11.4832 16.9527 9.49255 14.5 9.49255Z" fill="#B9B4B4"/>
</svg>
