<svg width="25" height="25" viewBox="0 0 25 25" fill="none" xmlns="http://www.w3.org/2000/svg">
<path d="M16.789 14.1581V16.3581L18.389 17.3581" stroke="white" stroke-width="1.75" stroke-linecap="round" stroke-linejoin="round"/>
<path d="M16.789 2.15814V6.15814" stroke="white" stroke-width="1.75" stroke-linecap="round" stroke-linejoin="round"/>
<path d="M21.789 7.65814V6.15814C21.789 5.62771 21.5783 5.119 21.2032 4.74393C20.8281 4.36886 20.3194 4.15814 19.789 4.15814H5.789C5.25857 4.15814 4.74986 4.36886 4.37479 4.74393C3.99972 5.119 3.789 5.62771 3.789 6.15814V20.1581C3.789 20.6886 3.99972 21.1973 4.37479 21.5724C4.74986 21.9474 5.25857 22.1581 5.789 22.1581H9.289" stroke="white" stroke-width="1.75" stroke-linecap="round" stroke-linejoin="round"/>
<path d="M3.789 10.1581H8.789" stroke="white" stroke-width="1.75" stroke-linecap="round" stroke-linejoin="round"/>
<path d="M8.789 2.15814V6.15814" stroke="white" stroke-width="1.75" stroke-linecap="round" stroke-linejoin="round"/>
<path d="M16.789 22.1581C20.1027 22.1581 22.789 19.4719 22.789 16.1581C22.789 12.8444 20.1027 10.1581 16.789 10.1581C13.4753 10.1581 10.789 12.8444 10.789 16.1581C10.789 19.4719 13.4753 22.1581 16.789 22.1581Z" stroke="white" stroke-width="1.75" stroke-linecap="round" stroke-linejoin="round"/>
</svg>
